# xmcd
#
# Track frame offsets:
#	150
#	2875
#	21415
#	38942
#	55099
#	73661
#	92086
#	111028
#	126529
#	146603
#	162301
#	180658
#	200768
#	217594
#	237432
#
# Disc length: 3439 seconds
# Revision: 0
# Processed by: cddbd v1.5.2PL0 Copyright (c) Steve Scherf et al.
# Submitted via: dBpowerAMP V12.0
#
DISCID=d90d6d0f
DTITLE=High South - Now
DYEAR=2013
DGENRE=Country
TTITLE0=Our Way Back Home (Intro)
TTITLE1=Now
TTITLE2=I'd Rather Miss You
TTITLE3=One Night At A Time
TTITLE4=Love Ain't Through With You Yet
TTITLE5=I See Sky
TTITLE6=All You Ever Needed
TTITLE7=What About Now
TTITLE8=Love On
TTITLE9=The Breath You Take
TTITLE10=Sweet Simplicity
TTITLE11=She Is
TTITLE12=The Best Is Yet To Come
TTITLE13=Erase
TTITLE14=My Way Back Home
EXTD=
EXTT0=
EXTT1=
EXTT2=
EXTT3=
EXTT4=
EXTT5=
EXTT6=
EXTT7=
EXTT8=
EXTT9=
EXTT10=
EXTT11=
EXTT12=
EXTT13=
EXTT14=
PLAYORDER=
